<svg xmlns="http://www.w3.org/2000/svg" xmlns:xlink="http://www.w3.org/1999/xlink" version="1.1" x="0px" y="0px" viewBox="0 0 100 125" enable-background="new 0 0 100 100" xml:space="preserve"><path d="M92.721,43.213V14.537H63.728v12.338H50.972V7.28H7.279v43.191h19.847v13.573H14.63V92.72h28.992V64.043H31.126V50.471  h17.139l9.539,9.418l-8.836,8.724l20.519,20.26l20.52-20.26l-20.52-20.26l-8.836,8.724l-9.679-9.557V30.875h12.756v12.338H92.721z   M39.622,88.72H18.63V68.043h20.992V88.72z M84.313,68.613L69.486,83.252L54.661,68.613l14.825-14.639L84.313,68.613z   M46.972,46.471H11.279V11.28h35.692V46.471z M67.728,18.537h20.993v20.677H67.728V18.537z"/><!--text x="0" y="115" fill="#000000" font-size="5px" font-weight="bold" font-family="'Helvetica Neue', Helvetica, Arial-Unicode, Arial, Sans-serif">Created by Emily van den Heever</text><text x="0" y="120" fill="#000000" font-size="5px" font-weight="bold" font-family="'Helvetica Neue', Helvetica, Arial-Unicode, Arial, Sans-serif">from the Noun Project</text--></svg>